/* XPM */
static char * sterlingcoin80_xpm[] = {
"80 80 97 2",
"  	c None",
". 	c #999999",
"+ 	c #989898",
"@ 	c #9D9D9D",
"# 	c #AFAFAF",
"$ 	c #FBFBFB",
"% 	c #E8E8E8",
"& 	c #FFFFFF",
"* 	c #9B9B9B",
"= 	c #C6C6C6",
"- 	c #FDFDFD",
"; 	c #A7A7A7",
"> 	c #F8F8F8",
", 	c #F5F5F5",
"' 	c #A3A3A3",
") 	c #979797",
"! 	c #9E9E9E",
"~ 	c #DDDDDD",
"{ 	c #FEFEFE",
"] 	c #C0C0C0",
"^ 	c #BABABA",
"/ 	c #E2E2E2",
"( 	c #A5A5A5",
"_ 	c #F0F0F0",
": 	c #ABABAB",
"< 	c #9F9F9F",
"[ 	c #D1D1D1",
"} 	c #FCFCFC",
"| 	c #CCCCCC",
"1 	c #959595",
"2 	c #B3B3B3",
"3 	c #EAEAEA",
"4 	c #969696",
"5 	c #A4A4A4",
"6 	c #E5E5E5",
"7 	c #F9F9F9",
"8 	c #B6B6B6",
"9 	c #C7C7C7",
"0 	c #D6D6D6",
"a 	c #949494",
"b 	c #B1B1B1",
"c 	c #F7F7F7",
"d 	c #EEEEEE",
"e 	c #DCDCDC",
"f 	c #C1C1C1",
"g 	c #9A9A9A",
"h 	c #C2C2C2",
"i 	c #EDEDED",
"j 	c #CECECE",
"k 	c #B7B7B7",
"l 	c #B9B9B9",
"m 	c #B4B4B4",
"n 	c #E4E4E4",
"o 	c #E9E9E9",
"p 	c #F1F1F1",
"q 	c #ACACAC",
"r 	c #FAFAFA",
"s 	c #C8C8C8",
"t 	c #F2F2F2",
"u 	c #CBCBCB",
"v 	c #CDCDCD",
"w 	c #CACACA",
"x 	c #A6A6A6",
"y 	c #AEAEAE",
"z 	c #F4F4F4",
"A 	c #A1A1A1",
"B 	c #BBBBBB",
"C 	c #F6F6F6",
"D 	c #9C9C9C",
"E 	c #939393",
"F 	c #ECECEC",
"G 	c #D4D4D4",
"H 	c #ADADAD",
"I 	c #D3D3D3",
"J 	c #EBEBEB",
"K 	c #C4C4C4",
"L 	c #D2D2D2",
"M 	c #B5B5B5",
"N 	c #F3F3F3",
"O 	c #A2A2A2",
"P 	c #B8B8B8",
"Q 	c #DFDFDF",
"R 	c #B2B2B2",
"S 	c #A0A0A0",
"T 	c #C9C9C9",
"U 	c #AAAAAA",
"V 	c #929292",
"W 	c #DBDBDB",
"X 	c #D5D5D5",
"Y 	c #E6E6E6",
"Z 	c #EFEFEF",
"` 	c #919191",
" .	c #E7E7E7",
"..	c #E3E3E3",
"+.	c #C5C5C5",
"@.	c #D8D8D8",
"#.	c #E0E0E0",
"                                                                                                                                                                ",
"                                                                      . . . . . . . . . .                                                                       ",
"                                                            . . . . . . . . . . . . . . . . . . . .                                                             ",
"                                                    . . . . . . . . . . . . . . . . . . . . . . . . . . . .                                                     ",
"                                                . . . . . . . . . . . . . . . . . . . . . . . . . . . . . . . .                                                 ",
"                                            . . . . . . . . . . . . . . . . . . . . . . . . . . . . . . . . . . . .                                             ",
"                                        . . . . . . . . . . . . . . . . . . . . . . . . . . . . . . . . . . . . . . . .                                         ",
"                                    . . . . . . . . . . . . . . . . . . . . . . . . . . . . . . . . . . . . . . . . . . . .                                     ",
"                                  . . . . . . . . . . . . . . . . . . . . . . . . . . . . . . . . . . . . . . . . . . . . . .                                   ",
"                                . . . . . . . . . . . . . . . . . . . . . . . . . . . . . . . . . . . . . . . . . . . . . . . .                                 ",
"                            . . . . . . . . . . . . . . . . . . . . . . . . . . . . . . . . . . . . . . . . . . . . . . . . . . . .                             ",
"                          . . . . . . . . . . . . . . . . . . . . . . . . . . . . . . . . . . . . . . . . . . . . . . . . . . . . . .                           ",
"                        . . . . . . . . . . . . . . . . . . . . . . . . . . + @ @ + . . . . . . . . . . . . . . . . . . . . . . . . . .                         ",
"                      . . . . . . . . . . . . . . . . . . . . . . . . . . . # $ $ # . . . . . . . . . . . . . . . . . . . . . . . . . . .                       ",
"                    . . . . . . . . . . . . . . . . . . . . . . . . . + @ % & & & & % @ + . . . . . . . . . . . . . . . . . . . . . . . . .                     ",
"                    . . . . . . . . . . . . . . . . . . . . . . . + * = & & & - - & & & = * + . . . . . . . . . . . . . . . . . . . . . . .                     ",
"                  . . . . . . . . . . . . . . . . . . . . . . . + ; > & & & , ' ' , & & & > ; + . . . . . . . . . . . . . . . . . . . . . . .                   ",
"                . . . . . . . . . . . . . . . . . . . . . . ) ! ~ & & & { ] + + + + ] { & & & ~ ! ) . . . . . . . . . . . . . . . . . . . . . .                 ",
"              . . . . . . . . . . . . . . . . . . . . . . * ^ & & & { / + + . . . . + + / { & & & ^ * . . . . . . . . . . . . . . . . . . . . . .               ",
"              . . . . . . . . . . . . . . . . . . . . ) ( _ & & & > : . . . . . . . . . . : > & & & _ ( ) . . . . . . . . . . . . . . . . . . . .               ",
"            . . . . . . . . . . . . . . . . . . . ) < [ & & & } | 1 + . . . . . . . . . . + 1 | } & & & [ < ) . . . . . . . . . . . . . . . . . . .             ",
"            . . . . . . . . . . . . . . . . . . . 2 { & & & 3 * . . . . . . . . . . . . . . . . * 3 & & & { 2 . . . . . . . . . . . . . . . . . . .             ",
"          . . . . . . . . . . . . . . . . . 4 5 6 & & & 7 8 ) . . . . . . . . . . . . . . . . . . ) 8 > & & & 6 5 4 . . . . . . . . . . . . . . . . .           ",
"        . . . . . . . . . . . . . . . . + @ 9 & & & } 0 a . . . . . . . . . . . . . . . . . . . . . . a 0 } & & & 9 @ + . . . . . . . . . . . . . . . .         ",
"        . . . . . . . . . . . . . . . 4 b c & & & d ' . . . . . . . . . . . . . . . . . . . . . . . . . . ' d & & & c b 4 . . . . . . . . . . . . . . .         ",
"        . . . . . . . . . . . . . 4 5 e & & & > f a . . . . . . . . . . . . . . . . . . . . . . . . . . . . a f > & & & e 5 4 . . . . . . . . . . . . .         ",
"      . . . . . . . . . . . . . g h & & & { ~ 4 . . . . . . . . . . . . . . . . . . . . . . . . . . . . . . . . 4 ~ { & & & h g . . . . . . . . . . . . .       ",
"      . . . . . . . . . . . . ; i & & & $ j k l l l l l l l l l l l l l l l l l l l l l l l l l l l l l l l l l l k j $ & & & i ; . . . . . . . . . . . .       ",
"    . . . . . . . . . . . . . m & & & & & & & & & & & & & & & & & & & & & & & & & & & & & & & & & & & & & & & & & & & & & & & & m . . . . . . . . . . . . .     ",
"    . . . . . . . . . . . . . 2 & & & & & & & & & & & & & & & & & & & & & & & & & & & & & & & & & & & & & & & & & & & & & & & & 2 . . . . . . . . . . . . .     ",
"    . . . . . . . . . . . . . 2 & & & & & & $ n % o o o o o o o o o o o o o o o o o o o o o o o o o o o o o o o o o o o o { & & 2 . . . . . . . . . . . . .     ",
"    . . . . . . . . . . . . . 2 & & & & & & & p q . ) ) ) ) ) ) ) ) ) ) ) ) ) ) ) ) ) ) ) ) ) ) ) ) ) ) ) ) ) ) ) ) ) ) a > & & 2 . . . . . . . . . . . . .     ",
"    . . . . . . . . . . . . . 2 & & r s & & & & & t u + ) . . . . . . . . . . . . . . . . . . . . . . . . . . . . . . . 4 > & & 2 . . . . . . . . . . . . .     ",
"  . . . . . . . . . . . . . . 2 & & > a + v t & & & & { w x 4 . . . . . . . . . . . . . . . . . . . . . . . . . . . . . 4 > & & 2 . . . . . . . . . . . . . .   ",
"  . . . . . . . . . . . . . . 2 & & > 4 . . g y z & & & & - % A ) . . . . . . . . . . . . . . . . . . . . . . . . . . . 4 > & & 2 . . . . . . . . . . . . . .   ",
"  . . . . . . . . . . . . . . 2 & & > 4 . . . + 1 2 e & & & & & n B 4 ) . . . . . . . . . . . . . . . . . . . . . . . . 4 > & & 2 . . . . . . . . . . . . . .   ",
"  . . . . . . . . . . . . . . 2 & & > 4 . . . . . . ) ! ~ $ & & & & 7 l @ . . . . . . . . . . . . . . . . . . . . . . . 4 > & & 2 . . . . . . . . . . . . . .   ",
"  . . . . . . . . . . . . . . 2 & & > 4 . . . . . . . . ) A ] } & & & & C 0 D 4 . . . . . . . . . . . . . . . . . . . . 4 > & & 2 . . . . . . . . . . . . . .   ",
"  . . . . . . . . . . . . . . 2 & & > 4 . . . . . . . . . . + E h F & & & & & G : ) + . . . . . . . . . . . . . . . . . 4 > & & 2 . . . . . . . . . . . . . .   ",
"  . . . . . . . . . . . . . . 2 & & > 4 . . . . . . . . . . . . . g ; o & & & & { p H + . . . . . . . . . . . . . . . . 4 > & & 2 . . . . . . . . . . . . . .   ",
"  . . . . . . . . . . . . . . 2 & & > 4 . . . . . . . . . . . . . . + 1 q I & & & & & J K . ) . . . . . . . . . . . . . 4 > & & 2 . . . . . . . . . . . . . .   ",
"  . . . . . . . . . . . . . . 2 & & > 4 . . . . . . . . . . . . . . . . . + ) L 7 & & & & & K < + . . . . . . . . . . . 4 > & & 2 . . . . . . . . . . . . . .   ",
"  . . . . . . . . . . . . . . 2 & & > 4 . . . . . . . . . . . . . . . . . . . ) ! M N & & & & r / O 1 . . . . . . . . . 4 > & & 2 . . . . . . . . . . . . . .   ",
"  . . . . . . . . . . . . . . 2 & & > 4 . . . . . . . . . . . . . . . . . . . . . + a P 6 & & & & & Q R . + . . . . . . 4 > & & 2 . . . . . . . . . . . . . .   ",
"  . . . . . . . . . . . . . . 2 & & > 4 . . . . . . . . . . . . . . . . . . . . . . . . . S Q & & & & & c P + . . . . . 4 > & & 2 . . . . . . . . . . . . . .   ",
"  . . . . . . . . . . . . . . 2 & & > 4 . . . . . . . . . . . . . . . . . . . . . . . . . . 1 5 T r & & & & t j @ 1 . . 4 > & & 2 . . . . . . . . . . . . . .   ",
"  . . . . . . . . . . . . . . 2 & & > 4 . . . . . . . . . . . . . . . . . . . . . . . . . . . . + a = z & & & & & [ O . 1 > & & 2 . . . . . . . . . . . . . .   ",
"  . . . . . . . . . . . . . . 2 & & > 4 . . . . . . . . . . . . . . . . . . . . . . . . . . . . . . + D y % & & & & } 3 U > & & 2 . . . . . . . . . . . . . .   ",
"    . . . . . . . . . . . . . 2 & & > E ) ) ) ) ) ) ) ) ) ) ) ) ) ) ) ) ) ) ) ) ) ) ) ) ) ) ) ) ) ) ) ) 4 V q W $ & & & & & & & 2 . . . . . . . . . . . . .     ",
"    . . . . . . . . . . . . . 2 & & } u | | | | | | | | | | | | | | | | | | | | | | | | | | | | | | | | | | | | v > & & & & & & 2 . . . . . . . . . . . . .     ",
"    . . . . . . . . . . . . . 2 & & & & & & & & & & & & & & & & & & & & & & & & & & & & & & & & & & & & & & & & & & & & & & & & 2 . . . . . . . . . . . . .     ",
"      . . . . . . . . . . . . 2 & & & & & & & & & & & & & & & & & & & & & & & & & & & & & & & & & & & & & & & & & & & & & & & & 2 . . . . . . . . . . . .       ",
"      . . . . . . . . . . . . # & & & & r I X X X X X X X X X X X X X X X X X X X X X X X X X X X X X X X X X X X X I r & & & & # . . . . . . . . . . . .       ",
"      . . . . . . . . . . . . ) : Y & & & Z 2 ` 1 1 1 1 1 1 1 1 1 1 1 1 1 1 1 1 1 1 1 1 1 1 1 1 1 1 1 1 1 1 1 1 ` 2 Z & & & Y : ) . . . . . . . . . . . .       ",
"      . . . . . . . . . . . . . . ) P } & & &  .! . . . . . . . . . . . . . . . . . . . . . . . . . . . . . . !  .& & & } P ) . . . . . . . . . . . . . .       ",
"        . . . . . . . . . . . . . . + A [ & & & 7 | 1 . . . . . . . . . . . . . . . . . . . . . . . . . . 1 | 7 & & & [ A + . . . . . . . . . . . . . .         ",
"        . . . . . . . . . . . . . . . . 4 H _ & & & t q ) . . . . . . . . . . . . . . . . . . . . . . ) q t & & & _ H 4 . . . . . . . . . . . . . . . .         ",
"          . . . . . . . . . . . . . . . . . g B & & & { ..g . . . . . . . . . . . . . . . . . . . . g ..{ & & & B g . . . . . . . . . . . . . . . . .           ",
"          . . . . . . . . . . . . . . . . . . ) ' ~ & & & > ] 4 . . . . . . . . . . . . . . . . 4 ] > & & & ~ ' ) . . . . . . . . . . . . . . . . . .           ",
"            . . . . . . . . . . . . . . . . . . . ) H > & & & p ' . . . . . . . . . . . . . . ' p & & & > H ) . . . . . . . . . . . . . . . . . . .             ",
"            . . . . . . . . . . . . . . . . . . . . + @ +.& & & - @.+ . . . . . . . . . . + @.- & & & +.D + . . . . . . . . . . . . . . . . . . . .             ",
"              . . . . . . . . . . . . . . . . . . . . . ) ( o & & & 7 2 + . . . . . . + 2 7 & & & o ( ) . . . . . . . . . . . . . . . . . . . . .               ",
"                . . . . . . . . . . . . . . . . . . . . . . . b } & & & i < . . . . < i & & & } b . . . . . . . . . . . . . . . . . . . . . . .                 ",
"                  . . . . . . . . . . . . . . . . . . . . . . + @ L & & & - w . . w - & & & L @ + . . . . . . . . . . . . . . . . . . . . . .                   ",
"                  . . . . . . . . . . . . . . . . . . . . . . . . + ( N & & & z z & & & N ( + . . . . . . . . . . . . . . . . . . . . . . . .                   ",
"                    . . . . . . . . . . . . . . . . . . . . . . . . + g ^ - & & & & - ^ g + . . . . . . . . . . . . . . . . . . . . . . . .                     ",
"                      . . . . . . . . . . . . . . . . . . . . . . . . . + ! #.& & #.! + . . . . . . . . . . . . . . . . . . . . . . . . .                       ",
"                        . . . . . . . . . . . . . . . . . . . . . . . . . . . H H . . . . . . . . . . . . . . . . . . . . . . . . . . .                         ",
"                          . . . . . . . . . . . . . . . . . . . . . . . . . . + + . . . . . . . . . . . . . . . . . . . . . . . . . .                           ",
"                            . . . . . . . . . . . . . . . . . . . . . . . . . . . . . . . . . . . . . . . . . . . . . . . . . . . .                             ",
"                              . . . . . . . . . . . . . . . . . . . . . . . . . . . . . . . . . . . . . . . . . . . . . . . . . .                               ",
"                                  . . . . . . . . . . . . . . . . . . . . . . . . . . . . . . . . . . . . . . . . . . . . . .                                   ",
"                                    . . . . . . . . . . . . . . . . . . . . . . . . . . . . . . . . . . . . . . . . . . . .                                     ",
"                                      . . . . . . . . . . . . . . . . . . . . . . . . . . . . . . . . . . . . . . . . . .                                       ",
"                                          . . . . . . . . . . . . . . . . . . . . . . . . . . . . . . . . . . . . . .                                           ",
"                                              . . . . . . . . . . . . . . . . . . . . . . . . . . . . . . . . . .                                               ",
"                                                  . . . . . . . . . . . . . . . . . . . . . . . . . . . . . .                                                   ",
"                                                        . . . . . . . . . . . . . . . . . . . . . . . .                                                         ",
"                                                                  . . . . . . . . . . . . . .                                                                   ",
"                                                                                                                                                                "};
