/* XPM */
static char * sterlingcoin32_xpm[] = {
"32 32 74 1",
" 	c None",
".	c #999999",
"+	c #9A9A9A",
"@	c #9E9E9E",
"#	c #D6D6D6",
"$	c #BCBCBC",
"%	c #F8F8F8",
"&	c #DDDDDD",
"*	c #A7A7A7",
"=	c #E4E4E4",
"-	c #F5F5F5",
";	c #B6B6B6",
">	c #979797",
",	c #9C9C9C",
"'	c #CDCDCD",
")	c #FDFDFD",
"!	c #CECECE",
"~	c #B5B5B5",
"{	c #F3F3F3",
"]	c #E7E7E7",
"^	c #989898",
"/	c #A2A2A2",
"(	c #DEDEDE",
"_	c #FCFCFC",
":	c #BFBFBF",
"<	c #9B9B9B",
"[	c #969696",
"}	c #E9E9E9",
"|	c #FFFFFF",
"1	c #F4F4F4",
"2	c #F6F6F6",
"3	c #FEFEFE",
"4	c #EBEBEB",
"5	c #C3C3C3",
"6	c #BEBEBE",
"7	c #CCCCCC",
"8	c #EDEDED",
"9	c #F9F9F9",
"0	c #D0D0D0",
"a	c #A4A4A4",
"b	c #B3B3B3",
"c	c #E2E2E2",
"d	c #DADADA",
"e	c #ADADAD",
"f	c #A8A8A8",
"g	c #D7D7D7",
"h	c #E5E5E5",
"i	c #B8B8B8",
"j	c #A0A0A0",
"k	c #EFEFEF",
"l	c #C1C1C1",
"m	c #F1F1F1",
"n	c #F7F7F7",
"o	c #B7B7B7",
"p	c #E6E6E6",
"q	c #ABABAB",
"r	c #D5D5D5",
"s	c #AAAAAA",
"t	c #BDBDBD",
"u	c #B0B0B0",
"v	c #EEEEEE",
"w	c #A5A5A5",
"x	c #C9C9C9",
"y	c #D1D1D1",
"z	c #9F9F9F",
"A	c #A3A3A3",
"B	c #BABABA",
"C	c #959595",
"D	c #E0E0E0",
"E	c #D2D2D2",
"F	c #FBFBFB",
"G	c #C8C8C8",
"H	c #A9A9A9",
"I	c #EAEAEA",
"              ....              ",
"          ............          ",
"        ................        ",
"       ..................       ",
"     ..........++..........     ",
"    ..........@##@..........    ",
"    .........$%&&%$.........    ",
"   .......+*=-;>>;-=*+.......   ",
"  .......,')!+....+!)',.......  ",
"  .....+~{]*^......^*]{~+.....  ",
" ...../(_:.<<<<<<<<<<.:_(/..... ",
" ....[}|%1111111111111{2|}[.... ",
" ....[})345:666666666666(}[.... ",
" ....[}76890a+^^^^^^^^^^7}[.... ",
".....[}7^[bc3de<+.......7}[.....",
".....[}7..^[fg3hi,+.....7}[.....",
".....[}7....^>j7%k5@<...7}[.....",
".....[}7.......>.lmn'a<.7}[.....",
".....[}7.........^[op)gq'}[.....",
" ....[}rqqqqqqqqqqqsft8|2}[.... ",
" ....[p||333333333333)_3|p[.... ",
" ....^uvk;w//////////w;kku^.... ",
"  ....^>x_yz+^^..^^+zy_x>^....  ",
"  ......>Ac1B,....,B1cA>......  ",
"   ......^Ci2Df<<fD2iC^......   ",
"   ........^+EFGGFE+^........   ",
"    .........[HIIH[.........    ",
"     .........^>>^.........     ",
"      ....................      ",
"        ................        ",
"          ............          ",
"             ......             "};
